<?xml version="1.0" encoding="UTF-8" standalone="no"?>
<!-- Created with Inkscape (http://www.inkscape.org/) -->

<svg
   width="211mm"
   height="144mm"
   viewBox="0 0 211 144"
   version="1.1"
   id="svg1"
   xml:space="preserve"
   inkscape:version="1.3.2 (091e20e, 2023-11-25)"
   sodipodi:docname="UM6P.svg"
   xmlns:inkscape="http://www.inkscape.org/namespaces/inkscape"
   xmlns:sodipodi="http://sodipodi.sourceforge.net/DTD/sodipodi-0.dtd"
   xmlns="http://www.w3.org/2000/svg"
   xmlns:svg="http://www.w3.org/2000/svg"><sodipodi:namedview
     id="namedview1"
     pagecolor="#ffffff"
     bordercolor="#666666"
     borderopacity="1.0"
     inkscape:showpageshadow="2"
     inkscape:pageopacity="0.0"
     inkscape:pagecheckerboard="0"
     inkscape:deskcolor="#d1d1d1"
     inkscape:document-units="mm"
     inkscape:zoom="0.79380783"
     inkscape:cx="510.19905"
     inkscape:cy="177.62485"
     inkscape:window-width="1440"
     inkscape:window-height="775"
     inkscape:window-x="0"
     inkscape:window-y="25"
     inkscape:window-maximized="0"
     inkscape:current-layer="layer1" /><defs
     id="defs1" /><g
     inkscape:label="Calque 1"
     inkscape:groupmode="layer"
     id="layer1"><rect
       style="fill:#ffffff;fill-opacity:1;stroke:#000000;stroke-width:0.013;paint-order:stroke fill markers"
       id="rect1"
       width="41.329865"
       height="41.329865"
       x="15.053991"
       y="13.100664" /><rect
       style="fill:#ffffff;fill-opacity:1;stroke:#000000;stroke-width:0.013;paint-order:stroke fill markers"
       id="rect1-2"
       width="41.329865"
       height="41.329865"
       x="62.863354"
       y="13.28941" /><rect
       style="fill:#ffffff;fill-opacity:1;stroke:#000000;stroke-width:0.013;paint-order:stroke fill markers"
       id="rect1-2-7"
       width="41.329865"
       height="41.329865"
       x="110.22945"
       y="13.228821" /><rect
       style="fill:#ffffff;fill-opacity:1;stroke:#000000;stroke-width:0.013;paint-order:stroke fill markers"
       id="rect1-2-7-3"
       width="41.329865"
       height="41.329865"
       x="158.29552"
       y="12.786964" /><path
       style="fill:#d84b2b;fill-opacity:1"
       d="M 13.891786,33.741255 V 12.110348 h 21.630905 21.630904 v 21.630907 21.6309 H 35.522691 13.891786 Z m 23.056737,13.7664 c 0.912254,-0.10804 1.60979,-0.2166 2.557352,-0.39804 0.182563,-0.035 0.381722,-0.10023 0.442576,-0.14505 0.06085,-0.0448 0.248892,-0.11452 0.417861,-0.15491 1.127063,-0.26937 2.811447,-1.34901 3.989615,-2.55722 0.54791,-0.56188 1.511979,-1.9323 1.511979,-2.14927 0,-0.0654 0.03979,-0.11893 0.08842,-0.11893 0.04863,0 0.153939,-0.18671 0.234022,-0.41492 0.08008,-0.2282 0.206906,-0.56428 0.281828,-0.74684 0.638978,-1.557 0.648286,-1.70917 0.688714,-11.259731 l 0.03736,-8.825559 -3.182322,0.02936 -3.182321,0.02936 -0.05904,8.353623 c -0.04019,5.686507 -0.09846,8.477267 -0.182511,8.740877 -0.38612,1.21101 -0.750171,1.83493 -1.499708,2.57023 -1.388967,1.36258 -4.753319,1.57036 -6.468495,0.39947 -0.871793,-0.59514 -1.391027,-1.29437 -1.917675,-2.58245 -0.229161,-0.56048 -0.257745,-1.38387 -0.318798,-9.183449 l -0.06496,-8.298301 h -3.208676 -3.208677 l -0.02928,8.077013 c -0.02942,8.114797 0.03813,9.907377 0.408576,10.843117 0.04818,0.1217 0.179956,0.52002 0.29283,0.88515 0.216769,0.7012 0.706706,1.74502 0.848243,1.80718 0.04618,0.0203 0.08397,0.0889 0.08397,0.15244 0,0.1967 1.080846,1.58522 1.585794,2.03721 1.156978,1.03564 2.588663,1.90347 3.614475,2.19094 0.152136,0.0426 0.37619,0.1187 0.497898,0.16903 0.502349,0.20773 1.202316,0.34508 2.338583,0.45887 0.661114,0.0662 1.222771,0.1406 1.248127,0.1653 0.0847,0.0825 1.135065,0.0462 2.154239,-0.0745 z M 61.69,33.741255 V 12.110348 h 21.630905 21.630915 v 21.630907 21.6309 H 83.320905 61.69 Z m 14.135558,5.70611 0.02845,-7.46052 0.523436,0.71124 c 0.28789,0.39118 0.586276,0.77703 0.663079,0.85745 0.0768,0.0804 0.139704,0.17999 0.139778,0.22128 7.4e-5,0.0413 0.124549,0.21975 0.27661,0.39656 0.152061,0.17682 0.276475,0.35414 0.276475,0.39406 0,0.0399 0.08906,0.16909 0.197917,0.28706 0.108854,0.11797 0.717538,0.93644 1.352631,1.81883 0.635092,0.88238 1.218192,1.67013 1.295777,1.75054 0.07758,0.0804 0.141063,0.18306 0.141063,0.22809 0,0.045 0.08877,0.1784 0.197266,0.29637 0.108496,0.11797 0.662819,0.86175 1.23183,1.65286 0.56901,0.7911 1.07291,1.48086 1.119778,1.5328 0.04687,0.0519 0.447138,-0.39617 0.889489,-0.9958 0.44235,-0.59962 1.094425,-1.47356 1.449055,-1.9421 0.354631,-0.46853 0.644783,-0.90004 0.644783,-0.95891 0,-0.0589 0.04129,-0.12364 0.09175,-0.14392 0.05046,-0.0203 0.557781,-0.68415 1.127374,-1.47526 0.569592,-0.7911 1.200467,-1.64266 1.401943,-1.89234 0.201476,-0.24968 0.366321,-0.50693 0.366321,-0.57166 0,-0.0647 0.03734,-0.13429 0.08298,-0.15457 0.04564,-0.0203 0.394169,-0.45675 0.774508,-0.96993 l 0.691525,-0.93304 0.0017,7.29507 c 9.32e-4,4.0123 0.0417,7.35811 0.0906,7.43514 0.06904,0.10877 0.791699,0.13349 3.234643,0.11065 l 3.145738,-0.0294 0.0281,-13.08366 0.0281,-13.083654 H 94.233224 91.14819 l -0.648355,0.968135 c -0.542257,0.809709 -1.812441,2.658873 -2.41303,3.512947 -0.310477,0.441517 -1.534499,2.229971 -2.006713,2.932067 -0.26604,0.395552 -0.81342,1.192189 -1.216399,1.770304 -0.402979,0.578115 -0.907372,1.317711 -1.120872,1.643541 l -0.388181,0.59242 -0.213983,-0.35186 c -0.11769,-0.19353 -0.26269,-0.41033 -0.322221,-0.48178 -0.149311,-0.17921 -1.434494,-2.023867 -2.24893,-3.227947 -0.370454,-0.547688 -0.713169,-1.045586 -0.761589,-1.106441 -0.04842,-0.06085 -0.532226,-0.757911 -1.075124,-1.549016 -0.542898,-0.791104 -1.091102,-1.587741 -1.218231,-1.770304 -0.127129,-0.182563 -0.637194,-0.916962 -1.133477,-1.631999 L 75.478751,20.740581 H 72.456906 69.43506 v 13.037554 c 0,7.17065 0.03395,13.0715 0.07545,13.113 0.0415,0.0415 1.472955,0.0622 3.181015,0.0461 l 3.105564,-0.0294 z m 33.662662,-5.70611 V 12.110348 h 21.63091 21.6309 v 21.630907 21.6309 h -21.6309 -21.63091 z m 23.80885,13.76 c 0.1025,-0.0525 0.31236,-0.0955 0.46637,-0.0955 0.34315,0 1.14324,-0.25625 1.92278,-0.61582 0.32115,-0.14813 0.63233,-0.26933 0.69152,-0.26933 0.0592,0 0.10762,-0.0376 0.10762,-0.0836 0,-0.046 0.15048,-0.15024 0.33439,-0.23165 0.18392,-0.0814 0.39553,-0.20626 0.47024,-0.27744 0.0747,-0.0712 0.39126,-0.33041 0.70342,-0.57607 1.57515,-1.23958 2.77669,-3.26307 3.24797,-5.46985 0.23995,-1.12358 0.0538,-3.74084 -0.34235,-4.81301 -0.86322,-2.33638 -2.44086,-4.049672 -4.69418,-5.097801 -0.98155,-0.456569 -1.20345,-0.525051 -2.70049,-0.833414 -0.5746,-0.118358 -1.06264,-0.233101 -1.08452,-0.254983 -0.0509,-0.05094 1.09993,-1.878559 1.21389,-1.927698 0.047,-0.02029 0.0855,-0.09027 0.0855,-0.155522 0,-0.06525 0.1162,-0.27271 0.25822,-0.461017 0.14202,-0.188307 0.40103,-0.591325 0.57557,-0.895596 0.17454,-0.304271 0.34463,-0.578115 0.37798,-0.608542 0.0333,-0.03043 0.15647,-0.229586 0.27359,-0.442576 0.11713,-0.21299 0.2416,-0.412149 0.27661,-0.442576 0.035,-0.03043 0.11345,-0.139384 0.1743,-0.242127 0.0609,-0.102743 0.45017,-0.717573 0.86515,-1.36629 0.41497,-0.648716 0.72772,-1.249264 0.69499,-1.33455 -0.0493,-0.128381 -0.65033,-0.155065 -3.49294,-0.155065 -3.14068,0 -3.45018,0.01674 -3.6298,0.19637 -0.10801,0.108004 -1.24073,1.850501 -2.51715,3.872216 -1.27643,2.021715 -2.50877,3.962283 -2.73852,4.312373 -0.22976,0.35009 -0.44717,0.72366 -0.48315,0.830155 -0.036,0.106495 -0.10357,0.193627 -0.15023,0.193627 -0.0467,0 -0.1141,0.08713 -0.14985,0.193627 -0.0662,0.197175 -0.29903,0.591326 -0.40848,0.691529 -0.16647,0.15239 -1.75719,2.79693 -2.02989,3.37464 -0.17236,0.36512 -0.36131,0.7563 -0.4199,0.86929 -0.1879,0.36235 -0.33509,2.30309 -0.26606,3.50833 0.0626,1.09322 0.26654,2.19157 0.502,2.7036 0.056,0.1217 0.18966,0.42044 0.2971,0.66386 0.10744,0.24342 0.22283,0.46747 0.25643,0.4979 0.0336,0.0304 0.1563,0.22605 0.27267,0.43473 0.49239,0.88292 1.86525,2.23805 2.95616,2.91799 1.47336,0.91831 2.86054,1.37072 4.63266,1.51089 1.10994,0.0878 3.18473,0.015 3.45035,-0.1211 z m -2.89713,-5.70434 c -0.68668,-0.0576 -1.76147,-0.58786 -2.19696,-1.08386 -0.36336,-0.41385 -0.65751,-0.98471 -0.88835,-1.72407 -0.35652,-1.14185 0.15934,-2.75958 1.16018,-3.63833 0.76064,-0.66785 1.29146,-0.83489 2.65307,-0.83489 1.12841,0 1.27541,0.0251 1.84966,0.31563 0.71284,0.36066 1.3948,1.04807 1.73185,1.74567 0.1815,0.37568 0.23267,0.69864 0.23699,1.49586 0.005,0.89056 -0.0321,1.09364 -0.2979,1.6364 -0.78774,1.60876 -2.12491,2.2658 -4.24854,2.08759 z m 26.77585,-8.05566 V 12.110348 h 21.63091 21.6309 v 21.630907 21.6309 h -21.6309 -21.63091 z m 16.92854,9.52092 v -3.59039 l 3.67891,-0.0482 c 2.0234,-0.0265 3.95276,-0.0992 4.28746,-0.16156 0.81268,-0.15138 1.55481,-0.3367 1.82562,-0.45588 0.12171,-0.0536 0.4184,-0.18441 0.65931,-0.29079 0.66096,-0.29183 1.48453,-0.84509 2.15391,-1.44694 0.67018,-0.60258 1.88915,-2.09689 1.88915,-2.31588 0,-0.078 0.0413,-0.15832 0.0918,-0.1786 0.12834,-0.0516 0.62842,-1.14379 0.82741,-1.80719 0.35004,-1.16696 0.42577,-1.78648 0.37871,-3.098032 -0.0571,-1.590396 -0.18275,-2.217353 -0.68757,-3.429965 -0.3755,-0.901982 -0.44841,-1.051118 -0.51384,-1.051118 -0.0389,0 -0.1,-0.08713 -0.13574,-0.193627 -0.0649,-0.193245 -0.29606,-0.586764 -0.40623,-0.691525 -0.032,-0.03043 -0.2229,-0.266929 -0.42422,-0.525559 -0.20131,-0.25863 -0.42785,-0.470237 -0.50341,-0.470237 -0.0756,0 -0.25809,-0.128777 -0.40562,-0.286172 -0.42766,-0.456266 -1.64866,-1.306057 -2.37047,-1.649806 -0.90044,-0.428823 -0.99007,-0.459795 -1.90279,-0.657567 -0.6741,-0.146067 -1.86727,-0.172555 -7.77274,-0.172555 h -6.97639 v 13.055993 13.05599 h 3.15335 3.15336 z m 0,-13.172173 v -3.706575 l 3.29166,0.0017 c 2.38268,0.0012 3.39859,0.04052 3.67891,0.14236 1.03819,0.377189 1.63287,0.903639 2.15756,1.910012 0.30201,0.579276 0.33193,0.733069 0.33193,1.7062 0,0.956376 -0.0334,1.135556 -0.31552,1.693526 -0.349,0.69018 -0.70525,1.09226 -1.28882,1.45458 -0.74145,0.46035 -1.14455,0.50481 -4.5769,0.50481 h -3.27882 z"
       id="path1"
       sodipodi:nodetypes="cccccccccscscsssssscccsssssscccsssssscssssscccccccccccssssssssssscssssssssscssscccccssssscssssssscccssccccccccccccssssssssssssssssscsscssssssssssssssssssssssssssssccscccccccccccsssssscsssscssssssscccccccccsssssscc" /><path
       style="fill:#484849;fill-opacity:1"
       d="m 45.190339,129.61662 c 0,-0.0388 0.402843,-0.98185 0.895206,-2.09565 0.492363,-1.1138 0.895206,-2.13734 0.895206,-2.27453 0,-0.20984 -3.236942,-7.24086 -4.323069,-9.39021 l -0.339279,-0.6714 h 0.858442 0.858443 l 1.873251,4.10535 c 1.030288,2.25794 1.91458,4.06559 1.965094,4.017 0.05051,-0.0486 0.860168,-1.87586 1.799231,-4.06059 l 1.707388,-3.97224 0.830477,-0.054 0.830477,-0.054 -1.696873,3.9034 c -0.933281,2.14688 -2.349367,5.41407 -3.14686,7.26043 l -1.449985,3.35702 h -0.778575 c -0.428216,0 -0.778574,-0.0317 -0.778574,-0.0705 z m -16.241405,-4.58085 c -3.124595,-1.57903 -3.914645,-5.77654 -1.576691,-8.3769 1.126849,-1.25333 2.279822,-1.73742 4.121446,-1.73046 1.707421,0.006 2.742748,0.40307 3.792509,1.45283 1.149904,1.1499 1.399829,1.84788 1.398725,3.90626 -10e-4,1.95257 -0.1494,2.39926 -1.190711,3.58525 -1.026872,1.16954 -1.981358,1.58496 -3.812629,1.65936 -1.525728,0.062 -1.685103,0.033 -2.732649,-0.49634 z m 4.514208,-1.33985 c 2.255295,-1.32025 2.561718,-4.74 0.580586,-6.47946 -0.843819,-0.74088 -1.732792,-1.01421 -3.000424,-0.92252 -2.45597,0.17765 -4.081617,2.62974 -3.387354,5.10941 0.303501,1.08399 1.588071,2.41951 2.59475,2.69765 0.97495,0.26938 2.35829,0.0949 3.212442,-0.40508 z m 24.702078,1.68314 c -0.2985,-0.0868 -0.730363,-0.33268 -0.959696,-0.54634 -0.805556,-0.75049 -0.914632,-1.34523 -0.914632,-4.98707 v -3.40753 h -1.074247 -1.074247 v -0.62665 -0.62664 h 1.074247 1.074247 v -1.79041 -1.79042 h 0.716164 0.716165 v 1.79042 1.79041 h 1.790412 1.790412 v 0.62664 0.62665 h -1.801264 -1.801263 l 0.05561,3.41765 0.05561,3.41766 0.502347,0.43173 c 0.535032,0.45982 1.370979,0.56152 2.157514,0.26248 0.398927,-0.15167 0.465215,-0.11171 0.638299,0.3848 0.280677,0.80515 0.276512,0.81114 -0.710876,1.0229 -1.04105,0.22326 -1.477524,0.22399 -2.234806,0.004 z m 7.504807,-0.0994 c -1.032134,-0.36605 -2.14696,-1.3781 -2.71083,-2.46092 -0.413922,-0.79487 -0.479736,-1.13888 -0.484265,-2.53126 -0.0044,-1.34278 0.06598,-1.75636 0.42202,-2.4812 0.961388,-1.95723 2.488729,-2.8831 4.763054,-2.88736 1.209471,-0.002 1.591098,0.0753 2.452749,0.49842 1.622881,0.79695 2.649925,2.5583 2.649925,4.54456 v 0.77318 h -4.457175 -4.457174 l 0.131783,0.58189 c 0.439344,1.93991 1.839593,3.00169 3.948454,2.99401 1.052727,-0.004 2.098924,-0.49311 2.826645,-1.32194 0.562542,-0.6407 0.609988,-0.65885 1.206993,-0.46182 0.341788,0.1128 0.621433,0.26806 0.621433,0.34504 0,0.077 -0.339347,0.52546 -0.754104,0.99665 -1.085897,1.23365 -2.190647,1.69997 -3.990488,1.6844 -0.787781,-0.007 -1.76384,-0.12995 -2.16902,-0.27365 z m 5.553524,-5.76991 c 0.185903,-0.30079 -0.283551,-1.48457 -0.840137,-2.11849 -0.726261,-0.82717 -1.467341,-1.1322 -2.75065,-1.1322 -1.410654,0 -2.459212,0.53084 -3.126284,1.5827 -0.28425,0.44822 -0.516818,1.04087 -0.516818,1.31701 v 0.50207 h 3.570257 c 1.963642,0 3.612276,-0.068 3.663632,-0.15109 z m 6.28372,5.64212 c -1.865455,-0.90663 -2.976069,-2.66284 -3.003332,-4.74916 -0.03024,-2.31392 0.969959,-4.04836 2.873662,-4.98319 0.874617,-0.42949 1.234872,-0.5015 2.457205,-0.49118 0.889151,0.008 1.679446,0.11973 2.083961,0.29593 0.807251,0.35161 2.058791,1.46455 2.409417,2.14258 0.251897,0.48712 0.243557,0.51535 -0.202288,0.68486 -0.745427,0.28341 -1.045238,0.19934 -1.426431,-0.39999 -0.761283,-1.19692 -2.963378,-1.7684 -4.43702,-1.15147 -0.754992,0.31607 -1.818677,1.5086 -2.096521,2.35047 -0.354175,1.07316 -0.156822,2.61155 0.463898,3.61615 1.083751,1.75399 3.341817,2.30854 5.12868,1.25954 0.467196,-0.27427 0.968662,-0.72921 1.114369,-1.01097 0.251912,-0.48715 0.299282,-0.50358 0.964664,-0.33469 0.542488,0.1377 0.680996,0.2493 0.616322,0.49662 -0.146802,0.56137 -1.128486,1.60292 -1.982522,2.10342 -0.702577,0.41173 -1.07452,0.49464 -2.448635,0.54582 -1.423841,0.053 -1.728728,0.008 -2.515429,-0.37474 z m 41.043499,0.16142 c -1.16101,-0.41429 -2.14348,-1.30165 -2.78928,-2.51923 -0.41746,-0.78709 -0.47485,-1.10064 -0.47517,-2.5961 -4.2e-4,-1.93006 0.28856,-2.69503 1.46094,-3.86742 2.10471,-2.1047 6.17244,-1.88326 7.88203,0.42908 0.6134,0.82967 0.59217,1.15276 -0.0889,1.35267 -0.55293,0.1623 -0.62759,0.13031 -1.13633,-0.48687 -0.75978,-0.92175 -1.71221,-1.36636 -2.92693,-1.36636 -2.67139,0 -4.41332,2.52125 -3.64913,5.28171 0.27678,0.99978 1.62416,2.31471 2.66472,2.60055 1.49625,0.41101 3.62372,-0.37079 4.14956,-1.52489 0.16926,-0.37148 0.24667,-0.39285 0.8382,-0.23138 0.83265,0.22729 0.81399,0.19768 0.50116,0.79521 -0.3927,0.75006 -1.35118,1.60294 -2.2665,2.01679 -0.95699,0.4327 -3.10922,0.49277 -4.1644,0.11624 z M 13.858133,118.12387 v -7.2663 l 3.894146,0.0615 c 3.579056,0.0565 3.952093,0.0927 4.61031,0.44704 2.837377,1.52741 3.463561,5.20527 1.270435,7.46183 -1.132135,1.16488 -1.930301,1.37001 -5.330755,1.37001 h -2.832765 v 2.5961 2.5961 h -0.805685 -0.805686 z m 8.295429,0.0506 c 1.619573,-1.23653 1.764651,-3.2328 0.348832,-4.79995 -0.821902,-0.90974 -1.427949,-1.0522 -4.481553,-1.05339 l -2.551337,-10e-4 v 3.23453 3.23453 l 3.013526,-0.0566 c 2.986455,-0.056 3.019428,-0.061 3.670532,-0.55817 z m 16.949377,-0.30406 v -7.51973 h 0.805685 0.805686 v 7.51973 7.51973 h -0.805686 -0.805685 z m 47.624952,0 v -7.51973 h 0.805686 0.805685 v 3.19502 3.19501 l 0.71945,-0.68439 c 1.928463,-1.8345 5.1937,-1.51639 6.524382,0.63563 l 0.544459,0.88052 0.05728,3.90883 0.05728,3.90884 H 95.52962 94.817127 l -0.06347,-3.53607 c -0.06882,-3.83391 -0.167365,-4.26661 -1.147263,-5.0374 -1.017605,-0.80045 -2.913436,-0.70502 -3.942422,0.19844 -1.206564,1.05938 -1.324706,1.51824 -1.324706,5.14515 v 3.22988 h -0.805685 -0.805686 z m 12.353841,2.41705 v -5.10267 h 0.716161 0.716167 v 0.84202 0.84202 l 0.67141,-0.64325 c 1.0834,-1.03797 1.74636,-1.30178 3.28154,-1.3058 1.19946,-0.003 1.45793,0.0589 2.22821,0.53517 0.61834,0.38229 1.00419,0.79656 1.32877,1.42668 0.44164,0.85735 0.45939,1.01929 0.51491,4.69823 l 0.0575,3.81028 h -0.70991 -0.70991 l -0.0697,-3.44655 c -0.0773,-3.82211 -0.22912,-4.44075 -1.27198,-5.18334 -1.30071,-0.92618 -3.5394,-0.48071 -4.48596,0.89265 -0.66372,0.96299 -0.82556,1.93869 -0.83048,5.00686 l -0.004,2.73038 h -0.716167 -0.716164 z m 12.353848,0 v -5.10267 h 0.71616 0.71617 v 5.10267 5.10268 h -0.71617 -0.71616 z m -0.0767,-7.53252 c -0.65917,-0.65916 -0.0531,-1.76776 0.90569,-1.65676 0.31946,0.037 0.59857,0.23004 0.76611,0.52991 0.23606,0.42251 0.23155,0.52059 -0.0432,0.93997 -0.35575,0.54295 -1.17813,0.63732 -1.62856,0.18688 z m -77.757056,-9.3249 c -1.084446,-0.384 -2.426543,-1.66119 -2.928704,-2.78706 -0.320356,-0.718253 -0.422042,-1.267694 -0.423454,-2.288046 -0.003,-2.19767 0.943289,-3.789701 2.855394,-4.80369 0.777169,-0.412133 1.107671,-0.474728 2.506576,-0.474728 1.398905,0 1.729407,0.0626 2.506577,0.474728 1.910375,1.013072 2.84817,2.596426 2.845151,4.80369 -0.0014,1.012376 -0.104324,1.575408 -0.418322,2.288046 -0.511828,1.16163 -1.843784,2.40526 -2.996885,2.79817 -1.032477,0.3518 -2.93657,0.34644 -3.946333,-0.0111 z m 4.267558,-1.76575 c 0.417155,-0.29382 0.951934,-0.89677 1.188398,-1.3399 0.367873,-0.689384 0.421467,-1.003558 0.371266,-2.176415 -0.05152,-1.203661 -0.127306,-1.465474 -0.621805,-2.148111 -0.853697,-1.178495 -1.829695,-1.624826 -3.390728,-1.550606 -0.991351,0.04713 -1.413538,0.157943 -1.927599,0.505925 -2.507989,1.697725 -2.356501,5.630297 0.268176,6.961737 0.635873,0.32256 1.018467,0.38525 2.067064,0.33871 1.086973,-0.0482 1.40453,-0.14007 2.045228,-0.59134 z m 20.747886,1.89461 c -1.423177,-0.43291 -2.818893,-1.78172 -3.297656,-3.18682 -0.367909,-1.079751 -0.35949,-2.979251 0.01812,-4.087466 0.198421,-0.582332 0.61516,-1.195854 1.229774,-1.810469 1.139718,-1.139718 2.398898,-1.583398 4.105057,-1.446444 1.276181,0.10244 2.070498,0.46072 3.00378,1.35487 l 0.671405,0.643253 V 94.094282 93.16274 h 0.716164 0.716165 v 5.192194 5.192216 h -0.716165 -0.716164 v -0.91181 -0.9118 l -0.876974,0.78848 c -0.482335,0.43366 -1.196657,0.88426 -1.587382,1.00132 -0.78233,0.2344 -2.563654,0.25924 -3.266121,0.0456 z m 3.609425,-1.63939 c 0.81298,-0.41195 1.714259,-1.48313 1.944692,-2.311288 0.759276,-2.728776 -1.056054,-5.192194 -3.826207,-5.192194 -3.498507,0 -5.182743,4.166368 -2.73255,6.759632 1.208276,1.27884 2.991054,1.56624 4.614065,0.74385 z m 47.007157,1.55885 c -1.80652,-0.67206 -2.98203,-2.01509 -3.36082,-3.839748 -0.70745,-3.407764 1.38738,-6.378675 4.66294,-6.61304 3.14187,-0.2248 5.29484,1.593363 5.5157,4.657957 l 0.0871,1.208528 h -4.43399 -4.43399 l 0.10576,0.651741 c 0.2447,1.507892 1.57926,2.664432 3.31036,2.868762 1.2861,0.15181 2.31938,-0.20996 3.24585,-1.13644 0.72258,-0.72258 0.85513,-0.78734 1.33186,-0.65061 0.29118,0.0835 0.56125,0.24732 0.60015,0.36401 0.10535,0.31607 -1.35278,1.81668 -2.18312,2.2467 -0.93006,0.48168 -3.43706,0.61816 -4.44779,0.24214 z m 5.3966,-5.931081 c 0.11766,-0.117656 -0.3768,-1.425924 -0.72822,-1.926776 -0.91475,-1.303715 -3.30587,-1.691013 -4.85069,-0.785684 -0.89039,0.521799 -1.73378,1.719021 -1.73409,2.461598 l -1.8e-4,0.431873 3.62481,-0.05873 c 1.99365,-0.0323 3.65341,-0.08733 3.68837,-0.122285 z m 6.83028,6.011621 c -1.24803,-0.37963 -2.48177,-1.44829 -3.15342,-2.73145 -0.46872,-0.895465 -0.54924,-3.263115 -0.15169,-4.460035 0.44392,-1.336496 1.83766,-2.715608 3.13325,-3.100356 1.94357,-0.577179 3.78189,-0.216162 5.05209,0.992148 0.40122,0.38167 0.75666,0.693945 0.78986,0.693945 0.0332,0 0.0604,-1.450234 0.0604,-3.222742 v -3.222741 h 0.71617 0.71616 v 7.51973 7.519751 h -0.71616 -0.71617 v -0.89521 c 0,-0.49237 -0.0455,-0.89522 -0.10108,-0.89522 -0.0556,0 -0.31415,0.25322 -0.57456,0.56272 -0.73363,0.87186 -2.05641,1.40586 -3.4423,1.38961 -0.64008,-0.008 -1.36571,-0.0751 -1.61253,-0.15015 z m 3.60522,-1.63499 c 3.3865,-1.72767 2.39158,-7.158951 -1.36853,-7.470768 -1.41075,-0.11699 -2.08358,0.06703 -2.94689,0.805987 -2.1049,1.801717 -1.87899,5.082281 0.45531,6.611781 1.00947,0.66144 2.62403,0.6836 3.86011,0.053 z M 13.858133,96.29596 v -7.251167 h 0.780929 0.780929 l 2.665614,3.840992 c 1.466088,2.112546 2.705898,3.843684 2.755134,3.846974 0.04924,0.0033 1.288965,-1.725157 2.754952,-3.840993 l 2.665432,-3.846973 h 0.781111 0.781111 v 7.251167 7.25119 h -0.803239 -0.803239 l -0.04721,-5.834284 -0.04721,-5.834263 -2.594065,3.685769 c -1.426736,2.027172 -2.635264,3.682512 -2.685618,3.678533 -0.05035,-0.004 -1.259796,-1.667687 -2.687649,-3.697128 l -2.596097,-3.689894 -0.04721,5.845623 -0.04721,5.845644 H 14.661359 13.85812 Z m 29.541794,-0.268561 v -7.51973 h 0.716165 0.716165 v 3.243805 3.243805 l 0.722586,-0.722586 c 2.105714,-2.105715 5.669958,-1.566892 6.869824,1.038541 0.329528,0.715547 0.378014,1.221322 0.433386,4.52079 l 0.06235,3.715126 h -0.821331 -0.821331 v -3.45339 c 0,-3.229131 -0.02616,-3.504375 -0.402843,-4.238978 -0.558147,-1.088485 -1.331888,-1.47884 -2.768479,-1.396707 -0.915604,0.05235 -1.230051,0.158861 -1.77781,0.602199 -1.25554,1.016193 -1.399628,1.530353 -1.462662,5.219356 l -0.05583,3.26752 h -0.705092 -0.705093 z m 25.244806,2.327535 V 93.16274 h 0.805685 0.805685 v 0.805685 0.805685 l 0.675702,-0.675701 c 1.578402,-1.578403 4.572654,-1.433142 5.70848,0.276936 l 0.389193,0.585962 0.388255,-0.545255 c 1.125036,-1.579967 4.364108,-1.89861 5.927486,-0.583113 1.151655,0.969053 1.313311,1.660181 1.38226,5.909564 l 0.06173,3.804647 h -0.821072 -0.821071 v -3.49708 c 0,-3.774581 -0.09613,-4.28528 -0.955809,-5.077879 -0.563308,-0.519351 -1.994985,-0.71225 -2.802807,-0.377639 -0.727171,0.301204 -1.551347,1.27276 -1.780895,2.099357 -0.103295,0.371964 -0.188259,2.066106 -0.188808,3.764761 l -9.99e-4,3.08848 h -0.700251 -0.700251 l -0.0628,-3.625606 C 75.901416,96.859723 75.841905,96.204249 75.571757,95.706159 74.726053,94.146874 72.494014,93.96046 71.204612,95.341426 70.380504,96.224055 70.2561,96.876853 70.2561,100.31864 v 3.22851 H 69.450415 68.64473 Z m 18.978364,0 V 93.16274 h 0.716165 0.716165 v 0.845586 0.845587 l 0.533575,-0.58419 c 1.539317,-1.685337 4.471093,-1.690603 5.787028,-0.0104 l 0.473288,0.604303 0.514875,-0.56328 c 0.712387,-0.77936 1.526777,-1.161159 2.70181,-1.266652 1.467967,-0.131792 2.475277,0.201099 3.344997,1.105447 1.01247,1.052776 1.14677,1.744463 1.14677,5.906439 v 3.50156 h -0.69749 -0.69748 l -0.0639,-3.53608 c -0.0567,-3.141619 -0.10477,-3.614121 -0.43057,-4.235823 -0.44625,-0.851572 -1.33101,-1.359214 -2.368934,-1.359214 -1.426077,0 -2.531789,0.960789 -2.888792,2.510166 -0.101649,0.441153 -0.186786,2.111334 -0.189194,3.711521 l -0.0044,2.90943 h -0.716101 -0.716165 v -3.33627 c 0,-3.666513 -0.136336,-4.441159 -0.912509,-5.18478 -1.020841,-0.978028 -3.0593,-0.726002 -3.962795,0.489943 -0.744869,1.002462 -0.854013,1.631834 -0.854013,4.924587 v 3.10652 h -0.716165 -0.716165 z m 53.794293,4.530356 c -0.62026,-1.46182 -5.32548,-13.231714 -5.40772,-13.527175 -0.0738,-0.265155 0.0376,-0.313322 0.72453,-0.313322 h 0.81175 l 2.45173,6.19288 c 1.34844,3.406084 2.51352,6.125277 2.58906,6.042647 0.0755,-0.0826 1.21055,-2.869436 2.52225,-6.192888 l 2.3849,-6.042639 h 0.84814 0.84815 l -2.90191,7.206407 -2.9019,7.20642 -0.84002,0.0543 c -0.82052,0.053 -0.84674,0.0385 -1.12896,-0.62664 z m 9.40725,-6.58933 v -7.251167 h 0.80568 0.80569 v 7.251167 7.25119 h -0.80569 -0.80568 z M 99.797893,85.901461 c 0,-0.0548 0.402847,-1.024883 0.895217,-2.155744 0.49236,-1.130861 0.8952,-2.154004 0.8952,-2.273652 0,-0.119648 -1.04739,-2.429191 -2.327537,-5.132318 -1.280144,-2.703127 -2.327535,-4.942873 -2.327535,-4.977213 0,-0.03434 0.376232,-0.03788 0.83607,-0.0079 l 0.83607,0.05457 1.876042,4.082501 c 1.03183,2.245376 1.93973,4.017884 2.01756,3.938906 0.0778,-0.07898 0.8996,-1.916103 1.82615,-4.082501 l 1.68465,-3.938906 0.83509,-0.05466 0.83508,-0.05466 -0.41629,0.949863 c -0.22895,0.522424 -1.66,3.829729 -3.1801,7.349565 l -2.76381,6.399702 -0.76093,10e-4 c -0.41851,5.61e-4 -0.760927,-0.04382 -0.760927,-0.09861 z M 17.707519,81.642966 C 15.527253,80.922181 14.341919,79.62146 13.880193,77.443064 13.76096,76.88053 13.679092,74.602808 13.679092,71.848027 v -4.646258 h 0.805686 0.805685 v 4.712095 c 0,5.538333 0.110008,6.149807 1.324973,7.364772 0.570419,0.570419 1.003921,0.82166 1.709992,0.991044 1.778253,0.426596 3.790169,-0.09176 4.663145,-1.201438 0.924861,-1.175623 0.962704,-1.424432 1.035573,-6.80856 l 0.06845,-5.057913 h 0.711284 0.711284 l -0.05444,5.415996 -0.05444,5.415995 -0.476376,0.895206 c -1.025844,1.927765 -2.539562,2.807157 -4.98438,2.895665 -0.92967,0.03366 -1.800522,-0.03703 -2.238014,-0.181665 z m 40.894637,-0.03796 c -0.999744,-0.307969 -2.364768,-1.47224 -2.900633,-2.47404 -0.335752,-0.627688 -0.395358,-1.022545 -0.395358,-2.619053 0,-2.107451 0.175599,-2.616452 1.317776,-3.819796 1.124927,-1.185168 1.838927,-1.460858 3.784898,-1.461424 1.540738,-4.48e-4 1.788697,0.04816 2.633422,0.516277 1.429629,0.792243 2.295264,2.247864 2.407747,4.048779 l 0.0615,0.984726 -4.431269,0.04789 -4.431269,0.04789 0.0039,0.399715 c 0.0132,1.341341 1.432894,2.859852 2.972599,3.179493 1.573827,0.326726 2.730941,-0.02281 3.817395,-1.153132 0.665835,-0.69272 0.811596,-0.736581 1.534484,-0.461739 l 0.47391,0.18018 -0.555808,0.755781 c -0.641605,0.872447 -1.745341,1.666403 -2.675948,1.924902 -0.902846,0.250787 -2.640581,0.204456 -3.617382,-0.09645 z m 5.387506,-6.17309 c 0,-0.64447 -0.467007,-1.506963 -1.132204,-2.091014 -1.410435,-1.238378 -3.487413,-1.237843 -4.898675,0.0013 -0.604279,0.530564 -1.296798,1.713039 -1.305877,2.229783 -0.003,0.171891 0.847401,0.223802 3.666412,0.223802 3.570321,0 3.670344,-0.0099 3.670344,-0.363833 z m 13.247888,6.292869 c -1.324915,-0.429362 -2.501865,-1.310624 -2.984241,-2.234504 -0.30303,-0.580385 -0.199118,-0.745222 0.568344,-0.901576 0.470292,-0.09581 0.587109,-0.03185 0.938856,0.514056 0.717598,1.113704 2.523142,1.741636 3.923571,1.364539 1.71999,-0.463145 2.263779,-2.115553 0.924175,-2.808289 -0.289281,-0.149593 -1.33815,-0.513269 -2.330819,-0.808169 -2.280659,-0.677532 -3.10913,-1.100905 -3.452093,-1.764123 -0.991312,-1.916987 0.755309,-3.93253 3.416136,-3.942109 1.72273,-0.0062 3.046345,0.601139 3.934923,1.805538 l 0.442305,0.599511 -0.66844,0.23142 c -0.645908,0.223619 -0.682334,0.213667 -1.080607,-0.295232 -0.938383,-1.199031 -3.320221,-1.449064 -4.355486,-0.457217 -1.133681,1.086135 -0.523915,1.792042 2.246385,2.600571 3.356351,0.979571 4.028426,1.497306 4.028426,3.103311 0,1.839135 -1.462537,3.015258 -3.849385,3.095545 -0.689308,0.02319 -1.455231,-0.02329 -1.70205,-0.103272 z M 28.360469,76.51191 v -5.192194 h 0.805685 0.805685 v 0.840807 0.840808 l 0.581884,-0.562116 c 1.744944,-1.685664 4.731459,-1.739404 6.256943,-0.112589 0.945173,1.007957 1.038985,1.514661 1.038985,5.611863 v 3.765615 h -0.702968 -0.702968 l -0.05796,-3.625583 c -0.05439,-3.402173 -0.08295,-3.665782 -0.463622,-4.277928 -0.509379,-0.819125 -1.354431,-1.227588 -2.539704,-1.227588 -1.035848,0 -1.66382,0.268363 -2.371608,1.013502 -0.914679,0.962949 -1.038985,1.558599 -1.038985,4.978626 v 3.138971 h -0.805682 -0.805685 z m 12.353841,0 v -5.192194 h 0.805685 0.805685 v 5.192194 5.192194 H 41.519995 40.71431 Z m 6.084206,1.38757 c -0.91245,-2.092544 -1.928368,-4.433398 -2.257595,-5.201897 l -0.598594,-1.397271 0.834427,0.05446 0.834428,0.05446 1.803488,4.243579 c 0.991919,2.333969 1.856555,4.187045 1.921414,4.117947 0.06486,-0.0691 0.90748,-1.99885 1.872493,-4.288339 l 1.754568,-4.162708 h 0.787823 c 0.673821,0 0.771537,0.04534 0.675278,0.313322 -0.0619,0.172327 -1.057484,2.506978 -2.21241,5.188113 l -2.099865,4.874792 -0.828227,0.0041 -0.828228,0.0041 z m 21.130052,-1.38757 v -5.192194 h 0.716165 0.716164 v 0.813224 0.813225 l 0.671405,-0.703898 c 0.67035,-0.702793 1.603943,-1.098581 2.596097,-1.100593 0.455229,-9.24e-4 0.492363,0.05301 0.492363,0.715166 0,0.700353 -0.01396,0.716165 -0.632395,0.716165 -1.393153,0 -2.524578,0.933398 -2.929848,2.417055 -0.107593,0.393891 -0.196074,2.065688 -0.196623,3.715105 l -9.99e-4,2.998939 h -0.716164 -0.716165 z m 17.187953,0 v -5.192194 h 0.805685 0.805685 v 5.192194 5.192194 h -0.805685 -0.805685 z m 6.875271,4.936598 C 91.686577,81.315639 91.24345,80.895807 91.007066,80.51555 90.597819,79.857218 90.574363,79.655161 90.516326,76.288109 l -0.06095,-3.536063 H 89.48684 88.518304 v -0.716165 -0.716165 h 0.984727 0.984726 v -1.790411 -1.790412 h 0.805685 0.805686 v 1.790412 1.790411 h 1.700891 1.700891 v 0.716165 0.716165 h -1.700891 -1.700891 v 3.370573 3.370573 l 0.457695,0.429983 c 0.471677,0.443117 1.28169,0.550959 2.243819,0.298733 0.411916,-0.107985 0.484413,-0.05337 0.65141,0.490759 0.180097,0.586808 0.165297,0.620149 -0.355936,0.801852 -0.749768,0.26137 -2.434589,0.225544 -3.104323,-0.06601 z M 40.926541,69.227831 c -0.433515,-0.173431 -0.606902,-0.958827 -0.311279,-1.410005 0.373002,-0.569273 0.921712,-0.704771 1.450623,-0.358215 1.088023,0.7129 0.0909,2.260392 -1.139344,1.76822 z m 44.28262,-0.168587 c -0.441144,-0.441144 -0.284264,-1.341669 0.289571,-1.662197 0.422474,-0.235983 0.520625,-0.231461 0.939966,0.0433 0.84974,0.55677 0.483813,1.909914 -0.516492,1.909914 -0.232114,0 -0.552984,-0.130958 -0.713045,-0.291019 z"
       id="path2" /></g></svg>
